<?xml version="1.0" encoding="UTF-8"?>
<svg id="Calque_2" data-name="Calque 2" xmlns="http://www.w3.org/2000/svg" viewBox="0 0 65 72.5">
  <defs>
    <style>
      .cls-1 {
        fill: none;
        stroke: #000;
        stroke-linecap: round;
        stroke-linejoin: round;
        stroke-width: 5px;
      }
    </style>
  </defs>
  <g id="Calque_1-2" data-name="Calque 1">
    <path class="cls-1" d="M2.5,17.5h60M25,32.5v22.5M40,32.5v22.5M6.25,17.5l3.75,45c0,1.99.79,3.9,2.2,5.3s3.31,2.2,5.3,2.2h30c1.99,0,3.9-.79,5.3-2.2,1.41-1.41,2.2-3.31,2.2-5.3l3.75-45M21.25,17.5V6.25c0-.99.4-1.95,1.1-2.65.7-.7,1.66-1.1,2.65-1.1h15c.99,0,1.95.4,2.65,1.1.7.7,1.1,1.66,1.1,2.65v11.25"/>
  </g>
</svg>